# xmcd
#
# Track frame offsets: 
#        150
#        34905
#        94263
#        139258
#        165242
#        175421
#        193061
#
# Disc length: 2760 seconds
#
# Revision: 3
# Processed by: cddbd v1.5.2PL0 Copyright (c) Steve Scherf et al.
# Submitted via: ExactAudioCopy v0.95b4
#
DISCID=5c0ac607
DTITLE=Kyung Wha Chung, Itamar Golan - Tokyo, Suntory Hall Live 2nd Ni
DTITLE=ght (98.4.28) [CD2) - Bartok, Ravel, Rachmaninov
DYEAR=1998
DGENRE=Classical
TTITLE0=Bartok - Violin Sonata No.2 - I. Molto moderato
TTITLE1=Bartok - Violin Sonata No.2 - II. Allegretto
TTITLE2=Ravel - Tzigane
TTITLE3=Rachmaninov - Vocalise
TTITLE4=Kreisler - Schon Rosmarin
TTITLE5=Kreisler - Tambourin Chinois
TTITLE6=Debussy - Beau soir (arr. by J. Heifetz)
EXTD=
EXTT0=
EXTT1=
EXTT2=
EXTT3=
EXTT4=
EXTT5=
EXTT6=
PLAYORDER=
